<svg xmlns="http://www.w3.org/2000/svg" viewBox="-80.0 -80.0 1552.0 400.0" width="1552" height="400"><rect x="-80.0" y="-80.0" width="1552.0" height="400.0" fill="#202020" /><defs><pattern id="lg-grid" width="50" height="50" patternUnits="userSpaceOnUse"><path d="M 50 0 L 0 0 0 50" fill="none" stroke="#262626" stroke-width="1"/></pattern></defs><rect x="-80.0" y="-80.0" width="1552.0" height="400.0" fill="url(#lg-grid)" /><path d="M 288.0 40.0 C 338.0 40.0, 318.0 40.0, 368.0 40.0" fill="none" stroke="#64B5F6" stroke-width="2.5" stroke-linecap="round" /><path d="M 656.0 40.0 C 706.0 40.0, 686.0 40.0, 736.0 40.0" fill="none" stroke="#64B5F6" stroke-width="2.5" stroke-linecap="round" /><path d="M 1024.0 40.0 C 1074.0 40.0, 1054.0 40.0, 1104.0 40.0" fill="none" stroke="#64B5F6" stroke-width="2.5" stroke-linecap="round" /><path d="M 1024.0 40.0 C 1074.0 40.0, 1054.0 200.0, 1104.0 200.0" fill="none" stroke="#22c55e" stroke-width="3.0" stroke-linecap="round" /><g class="node" data-id="2" data-type="ImageScale"><rect x="368.0" y="0.0" width="288.0" height="160.0" rx="8" ry="8" fill="#353535" stroke="#fbbf24" stroke-width="2.5" /><path d="M 376.0 0.0 L 648.0 0.0 Q 656.0 0.0 656.0 8.0 L 656.0 30.0 L 368.0 30.0 L 368.0 8.0 Q 368.0 0.0 376.0 0.0 Z" fill="#353535" /><text x="378.0" y="21.0" fill="#FFFFFF" font-family="Roboto, Arial, sans-serif" font-size="13" font-weight="600">ImageScale</text><circle cx="368.0" cy="40.0" r="4.5" fill="#64B5F6" stroke="#64B5F6" stroke-width="1.5" /><text x="382.0" y="43.5" fill="#DDDDDD" font-family="Roboto, Arial, sans-serif" font-size="11">image</text><circle cx="656.0" cy="40.0" r="4.5" fill="#64B5F6" stroke="#64B5F6" stroke-width="1.5" /><text x="642.0" y="43.5" fill="#DDDDDD" font-family="Roboto, Arial, sans-serif" font-size="11" text-anchor="end">IMAGE</text><rect x="376.0" y="54.0" width="272.0" height="16.0" rx="4" ry="4" fill="#2c2c2c" fill-opacity="1.0" stroke="#1e1e1e" stroke-width="0.5" /><text x="382.0" y="66.0" font-family="Roboto, Arial, sans-serif" font-size="10"><tspan fill="#9aa0a6" font-weight="400">upscale_method </tspan><tspan fill="#E0E0E0" font-weight="400">nearest-exact</tspan></text><rect x="376.0" y="74.0" width="272.0" height="16.0" rx="4" ry="4" fill="#fbbf24" fill-opacity="0.3" stroke="#1e1e1e" stroke-width="0.5" /><text x="382.0" y="86.0" font-family="Roboto, Arial, sans-serif" font-size="10"><tspan fill="#9aa0a6" font-weight="400">width </tspan><tspan fill="#22c55e" font-weight="700">1024</tspan><tspan fill="#888" font-weight="400">  </tspan><tspan fill="#ef4444" font-weight="500">512</tspan></text><rect x="376.0" y="94.0" width="272.0" height="16.0" rx="4" ry="4" fill="#2c2c2c" fill-opacity="1.0" stroke="#1e1e1e" stroke-width="0.5" /><text x="382.0" y="106.0" font-family="Roboto, Arial, sans-serif" font-size="10"><tspan fill="#9aa0a6" font-weight="400">height </tspan><tspan fill="#E0E0E0" font-weight="400">512</tspan></text><rect x="376.0" y="114.0" width="272.0" height="16.0" rx="4" ry="4" fill="#2c2c2c" fill-opacity="1.0" stroke="#1e1e1e" stroke-width="0.5" /><text x="382.0" y="126.0" font-family="Roboto, Arial, sans-serif" font-size="10"><tspan fill="#9aa0a6" font-weight="400">crop </tspan><tspan fill="#E0E0E0" font-weight="400">disabled</tspan></text><rect x="634.0" y="6.0" width="16.0" height="16" rx="4" ry="4" fill="#fbbf24" /><text x="642.0" y="18.0" fill="#111" font-family="Roboto, Arial, sans-serif" font-size="10" font-weight="700" text-anchor="middle">Δ</text></g><g class="node" data-id="1" data-type="LoadImage"><rect x="0.0" y="0.0" width="288.0" height="130.0" rx="8" ry="8" fill="#353535" stroke="#fbbf24" stroke-width="2.5" /><path d="M 8.0 0.0 L 280.0 0.0 Q 288.0 0.0 288.0 8.0 L 288.0 30.0 L 0.0 30.0 L 0.0 8.0 Q 0.0 0.0 8.0 0.0 Z" fill="#353535" /><text x="10.0" y="21.0" fill="#FFFFFF" font-family="Roboto, Arial, sans-serif" font-size="13" font-weight="600">LoadImage</text><circle cx="288.0" cy="40.0" r="4.5" fill="#64B5F6" stroke="#64B5F6" stroke-width="1.5" /><text x="274.0" y="43.5" fill="#DDDDDD" font-family="Roboto, Arial, sans-serif" font-size="11" text-anchor="end">IMAGE</text><circle cx="288.0" cy="60.0" r="4.5" fill="#353535" stroke="#81C784" stroke-width="1.5" /><text x="274.0" y="63.5" fill="#DDDDDD" font-family="Roboto, Arial, sans-serif" font-size="11" text-anchor="end">MASK</text><rect x="8.0" y="74.0" width="272.0" height="16.0" rx="4" ry="4" fill="#fbbf24" fill-opacity="0.3" stroke="#1e1e1e" stroke-width="0.5" /><text x="14.0" y="86.0" font-family="Roboto, Arial, sans-serif" font-size="10"><tspan fill="#9aa0a6" font-weight="400">image </tspan><tspan fill="#22c55e" font-weight="700">sample.png</tspan><tspan fill="#888" font-weight="400">  </tspan><tspan fill="#ef4444" font-weight="500">input.png</tspan></text><rect x="266.0" y="6.0" width="16.0" height="16" rx="4" ry="4" fill="#fbbf24" /><text x="274.0" y="18.0" fill="#111" font-family="Roboto, Arial, sans-serif" font-size="10" font-weight="700" text-anchor="middle">Δ</text></g><g class="node" data-id="3" data-type="ImageInvert"><rect x="736.0" y="0.0" width="288.0" height="60.0" rx="8" ry="8" fill="#353535" stroke="#1a1a1a" stroke-width="1.0" /><path d="M 744.0 0.0 L 1016.0 0.0 Q 1024.0 0.0 1024.0 8.0 L 1024.0 30.0 L 736.0 30.0 L 736.0 8.0 Q 736.0 0.0 744.0 0.0 Z" fill="#353535" /><text x="746.0" y="21.0" fill="#FFFFFF" font-family="Roboto, Arial, sans-serif" font-size="13" font-weight="600">ImageInvert</text><circle cx="736.0" cy="40.0" r="4.5" fill="#64B5F6" stroke="#64B5F6" stroke-width="1.5" /><text x="750.0" y="43.5" fill="#DDDDDD" font-family="Roboto, Arial, sans-serif" font-size="11">image</text><circle cx="1024.0" cy="40.0" r="4.5" fill="#64B5F6" stroke="#64B5F6" stroke-width="1.5" /><text x="1010.0" y="43.5" fill="#DDDDDD" font-family="Roboto, Arial, sans-serif" font-size="11" text-anchor="end">IMAGE</text></g><g class="node" data-id="4" data-type="SaveImage"><rect x="1104.0" y="0.0" width="288.0" height="120.0" rx="8" ry="8" fill="#353535" stroke="#60a5fa" stroke-width="2.5" /><path d="M 1112.0 0.0 L 1384.0 0.0 Q 1392.0 0.0 1392.0 8.0 L 1392.0 30.0 L 1104.0 30.0 L 1104.0 8.0 Q 1104.0 0.0 1112.0 0.0 Z" fill="#353535" /><text x="1114.0" y="21.0" fill="#FFFFFF" font-family="Roboto, Arial, sans-serif" font-size="13" font-weight="600">SaveImage</text><circle cx="1104.0" cy="40.0" r="4.5" fill="#64B5F6" stroke="#64B5F6" stroke-width="1.5" /><text x="1118.0" y="43.5" fill="#DDDDDD" font-family="Roboto, Arial, sans-serif" font-size="11">images</text><rect x="1112.0" y="54.0" width="272.0" height="16.0" rx="4" ry="4" fill="#2c2c2c" fill-opacity="1.0" stroke="#1e1e1e" stroke-width="0.5" /><text x="1118.0" y="66.0" font-family="Roboto, Arial, sans-serif" font-size="10"><tspan fill="#9aa0a6" font-weight="400">filename_prefix </tspan><tspan fill="#E0E0E0" font-weight="400">ComfyUI</tspan></text><rect x="1346.0" y="6.0" width="40.0" height="16" rx="4" ry="4" fill="#60a5fa" /><text x="1366.0" y="18.0" fill="#111" font-family="Roboto, Arial, sans-serif" font-size="10" font-weight="700" text-anchor="middle">MOVED</text></g><g class="node" data-id="5" data-type="PreviewImage"><rect x="1104.0" y="160.0" width="288.0" height="80.0" rx="8" ry="8" fill="#353535" stroke="#22c55e" stroke-width="3.0" /><path d="M 1112.0 160.0 L 1384.0 160.0 Q 1392.0 160.0 1392.0 168.0 L 1392.0 190.0 L 1104.0 190.0 L 1104.0 168.0 Q 1104.0 160.0 1112.0 160.0 Z" fill="#353535" /><text x="1114.0" y="181.0" fill="#FFFFFF" font-family="Roboto, Arial, sans-serif" font-size="13" font-weight="600">PreviewImage</text><circle cx="1104.0" cy="200.0" r="4.5" fill="#64B5F6" stroke="#64B5F6" stroke-width="1.5" /><text x="1118.0" y="203.5" fill="#DDDDDD" font-family="Roboto, Arial, sans-serif" font-size="11">images</text><rect x="1104.0" y="160.0" width="288.0" height="80.0" rx="8" ry="8" fill="#22c55e" fill-opacity="0.18" pointer-events="none" /><rect x="1370.0" y="166.0" width="16.0" height="16" rx="4" ry="4" fill="#22c55e" /><text x="1378.0" y="178.0" fill="#111" font-family="Roboto, Arial, sans-serif" font-size="10" font-weight="700" text-anchor="middle">+</text></g><rect x="-64.0" y="-64.0" width="320" height="36" rx="6" ry="6" fill="#000" fill-opacity="0.55" stroke="#444" /><rect x="-52.0" y="-54.0" width="14" height="14" rx="3" fill="#22c55e" /><text x="-32.0" y="-42.0" fill="#FFF" font-size="12" font-family="Roboto, Arial, sans-serif">Added</text><rect x="28.0" y="-54.0" width="14" height="14" rx="3" fill="#ef4444" /><text x="48.0" y="-42.0" fill="#FFF" font-size="12" font-family="Roboto, Arial, sans-serif">Removed</text><rect x="108.0" y="-54.0" width="14" height="14" rx="3" fill="#fbbf24" /><text x="128.0" y="-42.0" fill="#FFF" font-size="12" font-family="Roboto, Arial, sans-serif">Changed</text><rect x="188.0" y="-54.0" width="14" height="14" rx="3" fill="#60a5fa" /><text x="208.0" y="-42.0" fill="#FFF" font-size="12" font-family="Roboto, Arial, sans-serif">Moved</text></svg>